<svg width="99" height="99" viewBox="0 0 99 99" fill="none" xmlns="http://www.w3.org/2000/svg">
<g clip-path="url(#clip0_561_3438)">
<path d="M99 49.5C99 22.1663 76.8337 0 49.5 0C22.1663 0 0 22.1663 0 49.5C0 76.8337 22.1663 99 49.5 99C76.8337 99 99 76.8337 99 49.5Z" fill="#EA4949"/>
<path d="M86.6703 59.3162C86.5905 56.0641 84.356 53.4305 81.6226 53.4305C80.8245 53.4305 80.0664 53.6499 79.388 54.049C79.9067 52.7521 80.3058 51.6747 80.4255 51.3954C80.7447 50.5574 81.044 49.1209 81.044 49.1209C81.044 49.101 81.044 49.101 81.0639 49.081L81.6824 47.2854C81.7223 47.1657 81.7024 47.0459 81.6625 46.9462C81.6625 46.8265 81.6425 46.7068 81.5029 46.6669C81.3832 46.627 81.2834 46.7068 81.2036 46.8065C81.1038 46.8664 81.0041 46.9661 80.9841 47.0858L80.3856 48.7418L80.3457 48.7219L81.2036 45.5496C81.2435 45.4099 81.2236 45.2702 81.1637 45.1505C81.1637 44.9909 81.1238 44.8513 80.9642 44.8114C80.8245 44.7715 80.7048 44.8513 80.625 44.971C80.5053 45.0308 80.3856 45.1505 80.3457 45.3102L79.4479 48.3029L79.388 48.263L80.3058 44.5919C80.3457 44.4522 80.3257 44.3126 80.2459 44.2128C80.2459 44.0732 80.1861 43.9335 80.0265 43.8936C79.8668 43.8537 79.7671 43.9534 79.6873 44.0931C79.5875 44.153 79.5277 44.2527 79.4878 44.3724L78.4303 47.9837L78.3505 47.9637L79.0488 44.8912C79.0887 44.7715 79.0688 44.6517 79.0089 44.552C79.0089 44.3924 78.969 44.2328 78.7895 44.1929C78.6298 44.153 78.5101 44.2727 78.4503 44.4123C78.3705 44.4722 78.2907 44.5719 78.2707 44.6717L77.4327 47.7842L77.1135 48.5623C77.0736 48.2231 77.0138 47.8041 76.8741 47.445C76.8342 47.3652 76.5349 46.7666 76.1758 46.9661C76.1758 46.9462 76.1558 46.9462 76.1359 46.9262C76.1359 46.9262 75.8965 46.9063 76.096 47.8041C76.096 47.9039 76.1159 48.0236 76.1159 48.1433C76.1159 48.7019 76.076 49.2606 76.1159 49.5199C76.1957 49.9988 76.2157 50.7969 76.2157 50.7969C76.2157 50.7969 76.3155 52.1735 76.3354 52.4528L75.2381 55.4057C74.46 54.8071 73.5222 54.448 72.5047 54.448C70.0706 54.448 68.0156 56.523 67.5567 59.2763H52.6528C52.6528 59.1366 52.6728 58.977 52.6728 58.8374C52.6728 55.4855 50.3983 52.7721 47.6051 52.7721C44.8118 52.7721 42.5373 55.4855 42.5373 58.8374C42.5373 58.977 42.5373 59.1366 42.5573 59.2763H34.1377C34.1577 59.0369 34.1776 58.7975 34.1776 58.558C34.1776 57.4806 33.9382 56.4631 33.5192 55.5852C34.3173 53.5701 35.1353 51.4952 35.2949 51.0762C35.6141 50.2382 35.9134 48.8017 35.9134 48.8017C35.9134 48.7817 35.9134 48.7817 35.9334 48.7618L36.5519 46.9661C36.5918 46.8464 36.5718 46.7267 36.5319 46.627C36.5319 46.5072 36.512 46.3875 36.3723 46.3476C36.2526 46.3077 36.1528 46.3875 36.073 46.4873C35.9733 46.5472 35.8735 46.6469 35.8535 46.7666L35.255 48.4226L35.1951 48.4027L36.0531 45.2303C36.093 45.0907 36.073 44.951 36.0132 44.8313C36.0132 44.6717 35.9733 44.532 35.8136 44.4921C35.674 44.4522 35.5543 44.532 35.4745 44.6517C35.3548 44.7116 35.235 44.8313 35.1951 44.9909L34.2973 47.9837L34.2375 47.9438L35.1552 44.2727C35.1951 44.133 35.1752 43.9933 35.0954 43.8936C35.0954 43.7539 35.0355 43.6143 34.8759 43.5744C34.7163 43.5345 34.6165 43.6342 34.5367 43.7739C34.437 43.8337 34.3771 43.9335 34.3372 44.0532L33.2798 47.6644L33.2 47.6445L33.8983 44.5719C33.9382 44.4522 33.9182 44.3325 33.8584 44.2328C33.8584 44.0732 33.8185 43.9135 33.6389 43.8736C33.4793 43.8337 33.3596 43.9534 33.2997 44.0931C33.2199 44.153 33.1401 44.2527 33.1202 44.3525L32.2822 47.4649L31.963 48.243C31.9231 47.9039 31.8632 47.4849 31.7236 47.1258C31.6837 47.0459 31.3844 46.4474 31.0253 46.6469C31.0253 46.627 31.0053 46.627 30.9853 46.607C30.9853 46.607 30.7459 46.5871 30.9454 47.5048C30.9454 47.6046 30.9654 47.7243 30.9654 47.844C30.9654 48.4027 30.9255 48.9613 30.9654 49.2207C31.0452 49.6995 31.0652 50.4976 31.0652 50.4976C31.0652 50.4976 31.1649 51.8742 31.1849 52.1536L30.9055 52.8918C30.3469 52.6324 29.7284 52.4927 29.07 52.4927C26.2768 52.4927 24.0023 55.2062 24.0023 58.558C24.0023 58.7975 24.0222 59.0369 24.0422 59.2763H6.02586L8.85899 50.3779C9.07846 50.0985 10.2556 48.8017 10.2556 48.8017C10.2556 48.8017 10.8941 48.0236 11.3529 47.6046C11.5924 47.3851 11.9914 46.7866 12.4303 46.2279C12.5301 46.1082 12.6099 46.0085 12.7097 45.8887C13.6075 45.1306 13.3481 44.951 13.3481 44.951C13.3282 44.951 13.3082 44.971 13.2883 44.971C13.0688 44.4921 12.3106 44.8712 12.2109 44.9111C11.7919 45.1505 11.3928 45.5296 11.0936 45.8488L11.2931 45.1904C11.313 45.1705 11.313 45.1505 11.333 45.1306L13.2284 41.1802C13.2883 41.0405 13.3082 40.9008 13.2683 40.7612C13.3282 40.5617 13.3082 40.3621 13.1286 40.2624C12.9291 40.1626 12.7496 40.2624 12.6099 40.422C12.4902 40.4819 12.3705 40.5816 12.2907 40.7213L10.4551 44.3325L10.3554 44.2926L11.8916 39.6838C11.9515 39.5441 11.9315 39.3845 11.8717 39.2449C11.8916 39.0653 11.8517 38.8857 11.6722 38.8059C11.4926 38.7261 11.333 38.8259 11.2133 38.9855C11.0736 39.0453 10.934 39.165 10.8741 39.3446L9.19817 43.7938C9.19817 43.7938 9.17822 43.7938 9.17822 43.7739C9.09841 43.734 9.11836 43.0556 8.73928 43.0157C8.34025 42.9559 7.98112 43.0357 7.88136 43.1554C7.68184 43.3948 7.52223 43.2551 7.30276 43.2751C7.10325 43.2751 6.88378 43.2551 6.68426 43.5345C6.56455 43.6941 6.56455 44.0732 6.52465 44.1131C6.12562 44.6917 5.80639 45.4897 5.60687 46.188C5.3475 47.0459 2.73384 55.5653 1.69635 59.3561H0.998047C2.2151 65.4214 4.54944 71.0877 7.76165 76.1354H91.2592C93.7931 72.1651 95.7882 67.7956 97.1051 63.1669L86.6703 59.3162Z" fill="#0B296B"/>
<path d="M71.6463 57.3808C71.3869 54.3282 69.2322 51.954 66.6185 51.954C64.6034 51.954 62.8676 53.3506 62.0496 55.3857L57.3011 49.879C57.1614 49.4401 56.5429 47.2653 56.5429 47.2653C56.5429 47.2653 56.1239 46.0283 55.9843 45.2502C55.9045 44.8312 55.5254 43.9933 55.2062 43.1354C55.1463 42.9558 55.0864 42.7762 55.0266 42.6166C54.7872 41.1202 54.448 41.2799 54.448 41.2799C54.448 41.2998 54.428 41.3397 54.428 41.3597C53.7696 41.2599 53.6499 42.3572 53.63 42.4969C53.61 43.1154 53.7497 43.8137 53.8894 44.3524L52.9716 43.3349L49.919 39.0054C49.7993 38.8458 49.6596 38.746 49.48 38.6861C49.2805 38.4866 49.0411 38.3869 48.8216 38.5265C48.5822 38.6861 48.5822 38.9455 48.7019 39.2049C48.682 39.3844 48.7219 39.584 48.8416 39.7436L51.6747 44.0731L51.555 44.1529L47.864 39.2049C47.7442 39.0453 47.5846 38.9256 47.4051 38.9056C47.2255 38.746 47.006 38.6662 46.7866 38.8059C46.5671 38.9455 46.5471 39.1849 46.627 39.4044C46.5871 39.6039 46.627 39.8234 46.7467 40.0229L50.2582 45.1505L50.1783 45.2303L47.0858 41.1402C46.9262 40.9207 46.6868 40.801 46.4673 40.7811C46.2678 40.6414 46.0484 40.5815 45.8488 40.7212C45.6294 40.8808 45.6493 41.1202 45.7491 41.3597C45.7092 41.5592 45.769 41.7986 45.9087 41.9981L49.0212 46.3875L48.9613 46.4473L47.1058 44.2327C46.9661 44.0531 46.7866 43.9534 46.5871 43.9334C46.4274 43.8137 46.2279 43.7539 46.0683 43.8935C45.8887 44.0332 45.9087 44.2327 46.0085 44.4322C45.9885 44.6118 46.0484 44.8113 46.1681 44.9709L48.1433 47.405C48.1632 47.425 48.1632 47.4449 48.1832 47.4649C48.1832 47.4649 49.48 49.5199 50.4377 50.6172C50.9764 51.2357 53.9093 54.5477 56.5629 57.4407L46.8664 61.431L39.165 57.4407C39.3446 56.8022 39.4444 56.1239 39.4444 55.4256C39.4444 52.0737 37.1699 49.3603 34.3767 49.3603C31.5834 49.3603 29.3089 52.0737 29.3089 55.4256C29.3089 56.1239 29.4087 56.8022 29.5883 57.4407L1.57617 60.9921V61.9497C3.37182 68.8929 6.64389 75.2375 11.0133 80.6444H87.9667C92.0568 75.5967 95.1892 69.7109 97.0447 63.3065L71.6463 57.3808Z" fill="#011750"/>
<path d="M49.4997 98.9999C72.3443 98.9999 91.5577 83.5374 97.2639 62.4884H96.9846C96.9247 57.74 93.6925 53.9092 89.7022 53.9092C90.1012 51.136 90.4404 48.7218 90.5003 48.1432C90.6998 46.6468 90.62 44.1728 90.62 44.1728C90.62 44.1529 90.62 44.1329 90.62 44.113L90.9193 40.9008C90.9392 40.6813 90.8594 40.4818 90.7397 40.3421C90.6998 40.1227 90.6 39.9431 90.3806 39.9231C90.1611 39.9032 90.0214 40.0628 89.9616 40.2623C89.8219 40.382 89.7022 40.5816 89.7022 40.821L89.383 43.7738L89.2832 43.7539L89.4428 38.2273C89.4628 37.9679 89.363 37.7484 89.2234 37.5888C89.1635 37.3294 89.0438 37.1299 88.7645 37.11C88.5051 37.09 88.3654 37.2696 88.2856 37.509C88.0861 37.6487 87.9664 37.8881 87.9465 38.1674L87.6472 43.4346L87.5275 43.4147L87.6073 37.0302C87.6073 36.7907 87.5275 36.5713 87.3679 36.4316C87.2881 36.1922 87.1484 35.9927 86.889 36.0126C86.6297 36.0126 86.49 36.2121 86.4301 36.4516C86.2905 36.5912 86.2107 36.7708 86.2107 36.9903L85.8914 43.3349H85.7518L85.6919 38.0277C85.6919 37.8083 85.6321 37.6287 85.5124 37.489C85.4525 37.2097 85.3129 36.9703 85.0136 36.9903C84.7343 36.9903 84.5946 37.2297 84.5347 37.509C84.415 37.6487 84.3552 37.8282 84.3352 38.0277L84.1956 43.4745L83.996 44.8712C83.8165 44.3325 83.5372 43.6541 83.1581 43.1354C83.0783 43.0156 82.2802 42.058 81.7615 42.6964C81.5819 42.9358 82.0009 43.694 82.2004 44.5918C82.4199 45.5296 82.5595 46.4473 82.7391 46.8464C83.0783 47.5846 83.4174 48.9014 83.4174 48.9014C83.4174 48.9014 84.1357 51.116 84.2554 51.5749L83.4174 58.3385C82.8189 59.5755 82.4797 61.012 82.4398 62.5283H81.8612C80.4846 59.1166 77.5517 56.7623 74.1599 56.7623C70.7681 56.7623 67.8552 59.0767 66.4586 62.4884H62.987L65.2415 55.226C65.6605 54.7273 67.8751 52.2932 67.8751 52.2932C67.8751 52.2932 69.0722 50.8167 69.9301 50.0586C70.389 49.6396 71.1272 48.5423 71.9253 47.4848C72.7034 46.4673 73.681 45.7291 73.5813 45.3101C73.282 44.1928 71.7058 44.9709 71.5263 45.0707C70.7482 45.5096 69.99 46.2279 69.4513 46.8264L69.8104 45.6094C69.8304 45.5695 69.8703 45.5296 69.8902 45.4697L73.4416 38.1076C73.5613 37.8482 73.5813 37.5888 73.5414 37.3494C73.6411 36.9703 73.6212 36.5912 73.2621 36.3917C72.9029 36.1922 72.5638 36.3917 72.3044 36.7109C72.065 36.8107 71.8455 37.0102 71.7258 37.2696L68.2143 43.9334L68.0148 43.8536L70.8679 35.2345C70.9676 34.9552 70.9477 34.6759 70.8479 34.4165C70.8878 34.0574 70.808 33.7381 70.4688 33.5985C70.1297 33.4588 69.8503 33.6384 69.6309 33.9177C69.3515 34.0374 69.1121 34.2569 69.0124 34.5761L65.8999 42.8959C65.88 42.8959 65.88 42.876 65.86 42.876C65.7004 42.8161 65.7403 41.5392 65.042 41.4395C64.3038 41.3397 63.6254 41.4594 63.4459 41.6988C63.0668 42.1577 62.7875 41.8984 62.3685 41.9183C61.9894 41.9383 61.5904 41.8784 61.2312 42.3971C61.0118 42.6964 60.9918 43.3947 60.932 43.4745C60.1937 44.5519 59.5952 46.0683 59.2161 47.3452C58.9368 48.2829 57.6 52.772 56.2832 57.4207C55.3455 57.0017 54.3479 56.7823 53.3104 56.7823C50.178 56.7823 47.4247 58.7974 45.9483 61.8101L44.831 58.119C44.8908 57.6003 45.25 55.0066 45.25 55.0066C45.25 55.0066 45.3697 53.5102 45.6091 52.6124C45.7288 52.1335 45.7288 51.0761 45.7887 50.0187C45.8485 49.0011 46.1677 48.0634 45.9084 47.8639C45.23 47.2653 44.5317 48.4624 44.4519 48.6221C44.1327 49.2605 43.9531 50.0785 43.8534 50.697L43.5341 49.7394C43.5341 49.6994 43.5341 49.6595 43.5341 49.6196L42.5964 43.1753C42.5565 42.9558 42.4567 42.7563 42.3171 42.6366C42.2173 42.3373 42.0378 42.0979 41.7185 42.1378C41.3794 42.1777 41.2596 42.457 41.2397 42.7762C41.12 42.9558 41.0801 43.1753 41.1 43.3947L41.7584 49.3403L41.5988 49.3802C41.5988 49.3802 41.3195 48.6221 40.5214 48.8216C39.7234 49.0211 39.9229 49.3802 39.6236 49.4201C39.3443 49.46 39.0251 48.9014 38.5263 49.1608C37.9876 49.4201 37.6085 49.7992 37.5885 50.0386C37.5287 50.5175 37.2294 50.4576 36.97 50.6571C36.7306 50.8367 36.4313 50.9764 36.4313 51.4751C36.4313 51.7744 36.7107 52.2333 36.7107 52.3131C36.7107 53.3506 36.99 54.6075 37.2893 55.6251C37.4888 56.3034 38.4465 59.2962 39.5039 62.5683H37.4888C36.0922 61.4111 34.4162 60.7127 32.6006 60.7127C30.785 60.7127 29.0891 61.3911 27.7125 62.5683H22.964C25.2385 56.882 27.4731 51.116 27.912 49.9588C28.8098 47.5846 29.6677 43.4546 29.6677 43.4546H29.6478C29.6677 43.4147 29.6677 43.3748 29.6877 43.3548L31.4434 38.2073C31.5432 37.8482 31.5232 37.509 31.3836 37.2297C31.4035 36.8706 31.3237 36.5314 30.9446 36.4117C30.6055 36.292 30.3062 36.5114 30.1266 36.7907C29.8274 36.9304 29.5879 37.2297 29.4682 37.6088L27.7723 42.3572L27.6327 42.2974L30.0668 33.2394C30.1865 32.8403 30.1266 32.4213 29.9471 32.1021C29.967 31.6632 29.8274 31.2641 29.3884 31.1444C28.9894 31.0247 28.6502 31.2442 28.4307 31.6033C28.0517 31.7629 27.7524 32.1021 27.6327 32.561L25.0789 41.1202L24.8993 41.0404L27.5329 30.5459C27.6327 30.1469 27.5728 29.7678 27.3733 29.4485C27.3534 29.0296 27.1937 28.6704 26.7548 28.5707C26.3159 28.4709 26.0166 28.7502 25.8171 29.1293C25.5378 29.2889 25.3382 29.5683 25.2385 29.9074L22.2258 40.2224L21.9864 40.1626L23.9815 31.4038C24.0613 31.0646 24.0214 30.7254 23.8818 30.4461C23.8818 29.9673 23.7421 29.5283 23.2633 29.4086C22.8044 29.3089 22.4652 29.6281 22.2657 30.067C22.0263 30.2466 21.8268 30.506 21.7469 30.8452L19.3727 39.7635L18.4948 41.9981C18.3951 41.0404 18.2155 39.8034 17.7965 38.8059C17.6968 38.5864 16.8588 36.8706 15.8213 37.4292C15.8014 37.3893 15.7615 37.3494 15.7415 37.3095C15.7415 37.3095 15.0831 37.2696 15.6218 39.8433C15.6417 40.1626 15.6617 40.4818 15.6617 40.801C15.6417 42.4171 15.542 43.9933 15.6816 44.7315C15.941 46.0882 15.9809 48.3627 15.9809 48.3627C15.9809 48.3627 16.2403 51.8542 16.3001 52.9316C15.2028 52.3331 13.9858 51.9739 12.7089 51.9739C11.8509 51.9739 10.7137 52.5725 9.45674 53.4903C8.79833 53.3107 8.10003 53.2109 7.38177 53.2109C4.54864 53.2109 2.05468 54.7073 0.618164 56.9618C4.08975 80.7043 24.6599 98.9999 49.4997 98.9999Z" fill="#011030"/>
</g>
<defs>
<clipPath id="clip0_561_3438">
<rect width="99" height="99" fill="white"/>
</clipPath>
</defs>
</svg>
