<svg width="99" height="99" viewBox="0 0 99 99" fill="none" xmlns="http://www.w3.org/2000/svg">
<g clip-path="url(#clip0_561_3436)">
<path d="M49.4989 98.9988C76.8364 98.9988 98.9979 76.8374 98.9979 49.4999C98.9979 22.1624 76.8364 0.000976562 49.4989 0.000976562C22.1614 0.000976562 0 22.1624 0 49.4999C0 76.8374 22.1614 98.9988 49.4989 98.9988Z" fill="#E84F4F"/>
<path d="M54.8258 98.6999L40.8026 84.6767L49.6074 83.2594L49.6932 69.3867L22.6562 42.1778L37.6244 25.1051L51.7334 39.2142L52.4637 32.2561L56.501 24.6755L80.5315 18.5334L96.7881 34.7901C98.2269 39.4288 99.0002 44.3679 99.0002 49.479C99.0002 75.0126 79.6728 96.0153 54.8476 98.6782L54.8258 98.6999Z" fill="#D14747"/>
<path d="M29.2713 44.3041C35.5691 44.3041 40.6745 39.1987 40.6745 32.901C40.6745 26.6032 35.5691 21.4978 29.2713 21.4978C22.9735 21.4978 17.8682 26.6032 17.8682 32.901C17.8682 39.1987 22.9735 44.3041 29.2713 44.3041Z" fill="#FFAA00"/>
<path d="M29.2707 43.3583C35.0461 43.3583 39.728 38.6765 39.728 32.9011C39.728 27.1257 35.0461 22.4438 29.2707 22.4438C23.4953 22.4438 18.8135 27.1257 18.8135 32.9011C18.8135 38.6765 23.4953 43.3583 29.2707 43.3583Z" fill="#FFFF00"/>
<path d="M24.5244 24.7404L28.5832 31.6984C28.7764 31.5696 29.0127 31.5052 29.2704 31.5052C29.4636 31.5052 29.6569 31.5481 29.8286 31.634L33.2646 24.2465C31.3747 22.4856 26.092 23.0653 24.5457 24.7404H24.5244Z" fill="#FFAA00"/>
<path d="M19.8211 32.9008L27.8741 32.8793C27.8741 32.6432 27.917 32.4069 28.0458 32.1921C28.1531 32.0204 28.2819 31.8914 28.4323 31.7841L23.7507 25.127C21.2811 25.8787 19.155 30.7533 19.8209 32.9224L19.8211 32.9008Z" fill="#FFAA00"/>
<path d="M24.5243 41.0614L28.5188 34.0819C28.3041 33.9746 28.1322 33.8027 28.0035 33.588C27.8961 33.4163 27.8532 33.2444 27.8318 33.0513L19.7143 33.7816C19.1347 36.2941 22.2912 40.5892 24.5033 41.0832L24.5243 41.0614Z" fill="#FFAA00"/>
<path d="M33.9306 41.0613L29.8718 34.1033C29.6787 34.232 29.4424 34.2964 29.1846 34.2964C28.9915 34.2964 28.7981 34.2535 28.6264 34.1677L25.1904 41.5551C27.0803 43.3161 32.3631 42.7364 33.9094 41.0613H33.9306Z" fill="#FFAA00"/>
<path d="M38.6552 32.922L30.6022 32.9435C30.6022 33.1796 30.5592 33.4159 30.4305 33.6307C30.3232 33.8024 30.1944 33.9314 30.0439 34.0387L34.7256 40.6959C37.1951 39.9441 39.3213 35.0695 38.6554 32.9004L38.6552 32.922Z" fill="#FFAA00"/>
<path d="M33.9524 24.7618L29.9365 31.7413C30.1512 31.8486 30.323 32.0205 30.4518 32.2352C30.5591 32.4069 30.6021 32.5788 30.6235 32.7719L38.7409 32.0416C39.3206 29.5291 36.164 25.234 33.952 24.74L33.9524 24.7618Z" fill="#FFAA00"/>
<path d="M50.4874 59.1432V82.2502L56.1354 83.2166C57.4025 83.4312 57.9178 83.281 58.2185 84.6554H49.4995H40.7806C41.0812 83.2595 41.5967 83.4312 42.8636 83.2166L48.5114 82.2502V59.1432L28.819 33.9959C28.5829 33.6952 28.4969 33.3087 28.6044 32.9222C28.7331 32.5357 29.0123 32.2996 29.3347 32.2996H49.4568H69.5789C69.901 32.2996 70.2015 32.5357 70.3092 32.9222C70.438 33.3087 70.3307 33.7169 70.0946 33.9959L50.4013 59.1432H50.4874Z" fill="#E6E6E6"/>
<path d="M34.3818 36.3152L49.5216 55.2561L64.6615 36.3152H34.4033H34.3818Z" fill="#FFAA00"/>
<path d="M56.8009 42.2209C56.1781 42.6718 55.5124 42.6933 54.8252 42.2209V28.0475V26.6516V25.1055C54.8252 24.4612 55.2332 24.0318 55.7272 23.9243L80.5095 18.5557C81.1752 18.9207 81.1967 19.9086 81.0248 20.3595L57.1445 25.6208C56.9514 25.6637 56.758 25.8354 56.758 26.1146C56.758 31.4618 56.7795 36.8737 56.7795 42.2209H56.8009Z" fill="#FCFFFC"/>
<path d="M47.8893 47.3535C48.2544 47.3535 48.5336 47.6327 48.5336 47.9978C48.5336 48.3629 48.2544 48.6421 47.8893 48.6421C47.5243 48.6421 47.2451 48.3629 47.2451 47.9978C47.2453 47.6325 47.5243 47.3535 47.8893 47.3535ZM50.3804 49.2003C50.7455 49.2003 51.0247 49.4795 51.0247 49.8446C51.0247 50.2096 50.7455 50.4888 50.3804 50.4888C50.0151 50.4888 49.7361 50.2096 49.7361 49.8446C49.7363 49.4793 50.0155 49.2003 50.3804 49.2003ZM49.2423 43.4237C49.7576 43.4237 50.1658 43.8317 50.1658 44.3472C50.1658 44.8625 49.7578 45.2707 49.2423 45.2707C48.7268 45.2707 48.3188 44.8627 48.3188 44.3472C48.3188 43.8317 48.727 43.4237 49.2423 43.4237ZM46.6008 38.8279C47.5458 38.8279 48.3188 39.6012 48.3188 40.5459C48.3188 41.4907 47.5456 42.2639 46.6008 42.2639C45.6561 42.2639 44.8828 41.4907 44.8828 40.5459C44.8828 39.6012 45.6559 38.8279 46.6008 38.8279ZM50.4664 37.8186C51.1322 37.8186 51.6691 38.3554 51.6691 39.0213C51.6691 39.6872 51.1324 40.224 50.4664 40.224C49.8007 40.224 49.2637 39.6872 49.2637 39.0213C49.2637 38.3554 49.8007 37.8186 50.4664 37.8186Z" fill="#FFFF00"/>
<path d="M56.8009 36.3152H54.8252V42.2209C55.5124 42.6933 56.1781 42.6719 56.8009 42.2209C56.8009 40.2452 56.8009 38.2909 56.8009 36.3152Z" fill="#FFE25F"/>
</g>
<defs>
<clipPath id="clip0_561_3436">
<rect width="99" height="99" fill="white"/>
</clipPath>
</defs>
</svg>
